<?xml version="1.0" encoding="UTF-8"?>
<svg id="Camada_2" data-name="Camada 2" xmlns="http://www.w3.org/2000/svg" viewBox="0 0 122.59 102.7">
  <defs>
    <style>
      .cls-1 {
        fill: #fff;
      }

      .cls-2 {
        fill: #ff5d01;
      }
    </style>
  </defs>
  <g id="Camada_1-2" data-name="Camada 1">
    <g>
      <path class="cls-1" d="M34.84,53.86L0,71.46,32.03,2.49c.7-1.52,2.22-2.49,3.89-2.49h50.78c1.67,0,3.19.97,3.9,2.49l31.99,68.97-34.53-17.39-21.78-45.18c-.88-1.82-2.72-2.97-4.73-2.96h0c-1.99,0-3.79,1.14-4.67,2.92l-22.04,45Z"/>
      <path class="cls-2" d="M0,72.16v30.54l58.42-29.62c1.81-.92,3.95-.92,5.76,0l58.42,29.62v-30.54c0-.43-.24-.82-.62-1.02l-57.79-29.3c-1.81-.92-3.95-.92-5.76,0L.62,71.14c-.38.19-.62.59-.62,1.02Z"/>
    </g>
  </g>
</svg>